<svg width="48" height="48" viewBox="0 0 48 48" fill="none" xmlns="http://www.w3.org/2000/svg">
<g opacity="0.9">
<path d="M21.6654 33.4045C15.7499 33.4045 10.0428 33.4045 6.39613 33.4045C4.18699 33.4045 2.39722 31.6137 2.39722 29.4045V11.0045C2.39722 8.79537 4.18243 7.00452 6.39157 7.00452C13.9662 7.00452 30.4416 7.00452 39.1994 7.00452C41.4085 7.00452 43.1972 8.79538 43.1972 11.0045V17.0045" stroke="white" stroke-width="2"/>
<path d="M13.8229 38.7148C13.3159 38.9339 13.0827 39.5226 13.3018 40.0295C13.521 40.5364 14.1096 40.7697 14.6166 40.5505L13.8229 38.7148ZM21.5616 36.7076C19.9475 36.7076 17.9834 37.2342 16.4968 37.7195C15.7376 37.9673 15.0726 38.2147 14.5971 38.4003C14.359 38.4931 14.1676 38.5708 14.0348 38.6257C13.9684 38.6532 13.9165 38.6749 13.8807 38.6901C13.8628 38.6977 13.8489 38.7036 13.8392 38.7077C13.8344 38.7098 13.8306 38.7115 13.8278 38.7126C13.8265 38.7132 13.8254 38.7137 13.8245 38.714C13.8241 38.7142 13.8238 38.7144 13.8235 38.7145C13.8234 38.7146 13.8232 38.7146 13.8231 38.7146C13.823 38.7147 13.8229 38.7148 14.2197 39.6326C14.6166 40.5505 14.6165 40.5506 14.6164 40.5506C14.6164 40.5506 14.6164 40.5506 14.6164 40.5506C14.6163 40.5506 14.6164 40.5506 14.6165 40.5505C14.6168 40.5504 14.6173 40.5502 14.6181 40.5499C14.6197 40.5492 14.6223 40.5481 14.626 40.5465C14.6333 40.5434 14.6448 40.5385 14.6602 40.532C14.691 40.5189 14.7376 40.4993 14.7986 40.4741C14.9205 40.4238 15.0995 40.3511 15.324 40.2635C15.7736 40.0881 16.4023 39.8542 17.1174 39.6208C18.5793 39.1436 20.2862 38.7076 21.5616 38.7076V36.7076Z" fill="white"/>
<path d="M36.6663 40.0045H24.5959C22.9391 40.0045 21.5959 38.6614 21.5959 37.0045V16.0045C21.5959 14.3477 22.9391 13.0045 24.5959 13.0045H40.1959C41.8528 13.0045 43.1959 14.3477 43.1959 16.0045V19.3379" stroke="white" stroke-width="2"/>
<path d="M30.7466 35.0759H32.8466" stroke="white" stroke-width="2" stroke-linecap="round"/>
<path d="M35.8125 22.3528C35.8125 20.6959 37.1556 19.3528 38.8125 19.3528H43.2658C44.9227 19.3528 46.2658 20.6959 46.2658 22.3528V37.2528C46.2658 38.9096 44.9227 40.2528 43.2658 40.2528H38.8125C37.1556 40.2528 35.8125 38.9096 35.8125 37.2528V22.3528Z" stroke="white" stroke-width="2"/>
<path d="M40.2905 36.4554H41.7839" stroke="white" stroke-width="2" stroke-linecap="round"/>
</g>
</svg>
