<svg width="862" height="472" viewBox="0 0 862 472" fill="none" xmlns="http://www.w3.org/2000/svg">
<path fill-rule="evenodd" clip-rule="evenodd" d="M384 47C384 46.33 384.014 45.6632 384.042 45C385.09 19.9703 405.713 0 431 0C456.287 0 476.91 19.9703 477.958 45C477.986 45.6632 478 46.33 478 47H476C476 22.1472 455.853 2 431 2C406.147 2 386 22.1472 386 47H384Z" fill="#F82225"/>
<path d="M2 58C2 51.9249 6.92487 47 13 47H384C384 46.33 384.014 45.6632 384.042 45H13C5.8203 45 0 50.8203 0 58V459C0 466.18 5.82032 472 13 472H849C856.18 472 862 466.18 862 459V58C862 50.8203 856.18 45 849 45H477.958C477.986 45.6632 478 46.33 478 47H849C855.075 47 860 51.9249 860 58V459C860 465.075 855.075 470 849 470H13C6.92488 470 2 465.075 2 459V58Z" fill="#F82225"/>
</svg>
