<svg width="103" height="41" viewBox="0 0 103 41" fill="none" xmlns="http://www.w3.org/2000/svg">
<g opacity="0.8" clip-path="url(#clip0_1_7161)">
<path d="M48.6896 38.9593H45.6361V20.6387H48.6896V38.9593ZM47.1629 17.5853C46.0942 17.5853 45.1781 16.6693 45.1781 15.6005C45.1781 14.5318 46.0942 13.6158 47.1629 13.6158C48.2316 13.6158 49.1476 14.5318 49.1476 15.6005C49.1476 16.6693 48.2316 17.5853 47.1629 17.5853ZM65.6361 39.4173C57.5445 39.4173 52.3537 33.6158 52.3537 24.4555C52.3537 15.2952 57.5445 9.49368 65.6361 9.49368C73.7277 9.49368 78.9186 15.2952 78.9186 24.4555C78.9186 33.6158 73.7277 39.4173 65.6361 39.4173ZM76.0178 24.4555C76.0178 16.8219 72.0484 11.9364 65.6361 11.9364C59.2239 11.9364 55.2545 16.8219 55.2545 24.4555C55.2545 32.0891 59.2239 36.8219 65.6361 36.8219C72.0484 36.8219 76.0178 32.0891 76.0178 24.4555ZM92.3537 39.4173C86.2468 39.4173 81.972 36.0586 81.6667 31.0204H84.4148C84.7201 34.5318 87.9262 36.8219 92.5064 36.8219C96.9338 36.8219 99.9873 34.3792 99.9873 31.1731C99.9873 28.425 98.1552 26.8983 93.7277 25.8296L90.0636 24.9135C84.7201 23.5395 82.2774 21.2494 82.2774 17.4326C82.2774 12.6998 86.5522 9.34101 92.201 9.34101C97.8499 9.34101 101.972 12.6998 102.125 17.2799H99.6819C99.5293 14.0738 96.6285 11.9364 92.5064 11.9364C88.5369 11.9364 85.4835 14.2265 85.4835 17.4326C85.4835 19.8754 87.3155 21.4021 91.5903 22.4708L94.7964 23.2341C100.598 24.7609 103.041 26.8983 103.041 31.0204C102.888 36.0586 98.9186 39.4173 92.3537 39.4173ZM33.4224 31.4784C32.8117 32.8525 32.0484 34.2265 31.285 35.2952C30.2163 36.9746 29.3003 38.0433 28.5369 38.654C27.4682 39.7227 26.2468 40.1807 25.0255 40.1807C24.1094 40.1807 23.0407 39.8754 21.6667 39.4173C20.4453 38.9593 19.2239 38.654 18.1552 38.654C17.0865 38.654 15.8652 38.9593 14.4911 39.4173C13.2697 39.8754 12.201 40.1807 11.285 40.1807C10.0636 40.1807 8.84226 39.7227 7.62088 38.5013C6.85752 37.8906 5.94149 36.6693 4.72012 34.9899C3.49875 33.3105 2.43005 31.1731 1.66669 28.883C0.903328 26.5929 0.445312 24.1502 0.445312 21.8601C0.445312 19.112 1.056 16.8219 2.1247 14.9899C3.04073 13.4631 4.26211 12.2418 5.78882 11.3257C7.31554 10.4097 8.99493 9.95169 10.6743 9.95169C11.5903 9.95169 12.9644 10.257 14.4911 10.8677C16.0178 11.4784 17.0865 11.7838 17.5445 11.7838C17.8499 11.7838 18.9186 11.4784 20.9033 10.7151C22.7354 10.1044 24.2621 9.79902 25.4835 9.95169C28.8423 10.257 31.4377 11.4784 33.1171 13.9212C30.0636 15.7532 28.6896 18.3486 28.6896 21.5547C28.6896 24.1502 29.6056 26.2876 31.4377 27.967C32.201 28.7303 33.1171 29.341 34.1858 29.799C33.8804 30.257 33.5751 30.8677 33.4224 31.4784ZM25.6361 1.09673C25.6361 3.08147 24.8728 4.91353 23.4987 6.74559C21.8194 8.73032 19.682 9.95169 17.3919 9.79902C17.3919 9.49368 17.3919 9.34101 17.3919 9.03566C17.3919 7.05093 18.1552 5.0662 19.682 3.38681C20.4453 2.47078 21.3613 1.86009 22.43 1.2494C23.4987 0.638718 24.5674 0.333374 25.6361 0.333374C25.6361 0.638718 25.6361 0.791389 25.6361 1.09673Z" fill="white"/>
</g>
<defs>
<clipPath id="clip0_1_7161">
<rect width="102.443" height="40" fill="white" transform="translate(0.445312 0.333374)"/>
</clipPath>
</defs>
</svg>
