<svg width="48" height="48" viewBox="0 0 48 48" fill="none" xmlns="http://www.w3.org/2000/svg">
<g opacity="0.9">
<path d="M25.1874 4.05225L25.2564 3.05463L23.901 2.9609L24.2143 4.28288L25.1874 4.05225ZM42.4015 17.0012L42.7465 17.9398L43.6836 17.5952L43.3406 16.6576L42.4015 17.0012ZM25.2577 4.34886L26.2307 4.11823L26.2307 4.11822L25.2577 4.34886ZM25.744 5.25477L26.4739 4.57118L26.4739 4.57118L25.744 5.25477ZM26.1099 5.64543L25.38 6.32902V6.32902L26.1099 5.64543ZM26.4986 7.54552L27.4383 7.88754V7.88754L26.4986 7.54552ZM26.4309 7.73163L25.4912 7.38961V7.38961L26.4309 7.73163ZM27.4198 9.85235L27.7618 8.91266L27.4198 9.85235ZM28.499 11.5843L27.5048 11.4772L28.499 11.5843ZM28.2963 13.4673L29.2905 13.5744V13.5744L28.2963 13.4673ZM28.8251 15.0486L28.0952 15.7322V15.7322L28.8251 15.0486ZM30.4525 16.7862L31.1824 16.1026L31.1824 16.1026L30.4525 16.7862ZM32.3043 17.3802L32.1083 16.3996L32.3043 17.3802ZM36.5142 16.5386L36.7102 17.5192L36.7102 17.5192L36.5142 16.5386ZM37.2033 16.5219L37.0548 17.5108L37.2033 16.5219ZM41.313 17.1391L41.4615 16.1502H41.4615L41.313 17.1391ZM42.3001 17.0384L41.9551 16.0999L41.9551 16.0999L42.3001 17.0384ZM12.8005 40.2698L12.2442 41.1008L12.78 41.4594L13.3278 41.1195L12.8005 40.2698ZM14.3023 6.42755L14.9836 5.69556L14.4551 5.20363L13.8219 5.55052L14.3023 6.42755ZM15.7039 7.73209L16.3852 7.0001L16.3852 7.0001L15.7039 7.73209ZM16.1031 8.24961L16.984 7.77638L16.984 7.77637L16.1031 8.24961ZM17.01 9.93778L16.129 10.411L16.1595 10.4677L16.197 10.5201L17.01 9.93778ZM18.7632 12.3856L19.5762 11.8033V11.8033L18.7632 12.3856ZM19.2544 16.2048L18.3129 16.5419L18.3129 16.5419L19.2544 16.2048ZM19.656 17.3262L20.5974 16.989V16.989L19.656 17.3262ZM18.8276 19.6999L18.3003 18.8502L18.8276 19.6999ZM17.1755 20.7251L17.7028 21.5748L17.7028 21.5748L17.1755 20.7251ZM16.8674 20.9605L17.5487 21.6925L17.5487 21.6925L16.8674 20.9605ZM14.8827 22.8078L14.2014 22.0758L14.8827 22.8078ZM12.573 24.9576L13.2543 25.6896L12.573 24.9576ZM12.0041 26.9404L11.0383 27.1998L12.0041 26.9404ZM12.6066 29.1836L13.5723 28.9242L12.6066 29.1836ZM13.1755 30.1288L12.4942 30.8607L12.4942 30.8607L13.1755 30.1288ZM14.5265 31.3862L15.2078 30.6543L15.2078 30.6542L14.5265 31.3862ZM15.0468 32.1759L14.1053 32.5131L14.1053 32.5131L15.0468 32.1759ZM15.9463 34.6878L16.8878 34.3506L15.9463 34.6878ZM16.4651 36.1362L17.4065 35.799V35.799L16.4651 36.1362ZM15.6367 38.5099L16.1639 39.3596H16.1639L15.6367 38.5099ZM23.3332 26.0246L24.0059 26.7645L23.3332 26.0246ZM24.9417 24.5623L24.269 23.8224L24.9417 24.5623ZM23.0658 28.6872L22.2594 29.2785H22.2594L23.0658 28.6872ZM24.0291 30.0008L24.8355 29.4094L24.8355 29.4094L24.0291 30.0008ZM24.392 31.494L25.3799 31.6492L24.392 31.494ZM23.9488 34.3147L22.9609 34.1594L23.9488 34.3147ZM24.0189 35.0291L24.9577 34.6848L24.9577 34.6848L24.0189 35.0291ZM25.8809 35.8694L26.244 36.8011L26.244 36.8011L25.8809 35.8694ZM28.3385 34.9119L28.7015 35.8437L28.7015 35.8437L28.3385 34.9119ZM29.2816 34.15L28.447 33.5992L28.447 33.5992L29.2816 34.15ZM30.7259 31.9617L31.5605 32.5126L31.5605 32.5126L30.7259 31.9617ZM30.9399 31.6914L30.2124 31.0054L30.2123 31.0054L30.9399 31.6914ZM32.994 29.5129L33.7216 30.1989V30.1989L32.994 29.5129ZM32.6655 26.4884L32.1021 27.3146L32.1021 27.3146L32.6655 26.4884ZM32.0812 26.09L32.6446 25.2638L32.6224 25.2487L32.5995 25.2348L32.0812 26.09ZM30.4685 25.1126L30.9868 24.2574L30.9868 24.2574L30.4685 25.1126ZM29.8751 24.8727L29.6535 25.8479L29.8751 24.8727ZM27.6712 24.3718L27.3812 25.3289L27.4151 25.3391L27.4496 25.347L27.6712 24.3718ZM26.8671 24.1282L27.1571 23.1711L27.1571 23.1711L26.8671 24.1282ZM25.1184 5.04986C32.654 5.57099 38.971 10.5355 41.4623 17.3448L43.3406 16.6576C40.5851 9.12629 33.5996 3.63161 25.2564 3.05463L25.1184 5.04986ZM24.2143 4.28288L24.2846 4.57949L26.2307 4.11822L26.1604 3.82161L24.2143 4.28288ZM24.2846 4.57949C24.4052 5.08828 24.6567 5.55672 25.0142 5.93836L26.4739 4.57118C26.3547 4.44397 26.2709 4.28782 26.2307 4.11823L24.2846 4.57949ZM25.0142 5.93835L25.38 6.32902L26.8398 4.96184L26.4739 4.57118L25.0142 5.93835ZM25.38 6.32902C25.5997 6.56352 25.6688 6.90158 25.559 7.2035L27.4383 7.88754C27.806 6.87743 27.5746 5.7464 26.8398 4.96184L25.38 6.32902ZM25.559 7.2035L25.4912 7.38961L27.3706 8.07365L27.4383 7.88754L25.559 7.2035ZM25.4912 7.38961C24.9898 8.76729 25.7001 10.2906 27.0778 10.792L27.7618 8.91266C27.4221 8.78901 27.247 8.41337 27.3706 8.07365L25.4912 7.38961ZM27.0778 10.792C27.3608 10.895 27.537 11.1778 27.5048 11.4772L29.4933 11.6913C29.624 10.4771 28.9094 9.33034 27.7618 8.91266L27.0778 10.792ZM27.5048 11.4772L27.302 13.3603L29.2905 13.5744L29.4933 11.6913L27.5048 11.4772ZM27.302 13.3603C27.2085 14.2287 27.4981 15.0947 28.0952 15.7322L29.5549 14.365C29.3559 14.1525 29.2594 13.8638 29.2905 13.5744L27.302 13.3603ZM28.0952 15.7322L29.7226 17.4698L31.1824 16.1026L29.5549 14.365L28.0952 15.7322ZM29.7226 17.4698C30.4321 18.2273 31.4827 18.5643 32.5004 18.3608L32.1083 16.3996C31.769 16.4674 31.4189 16.3551 31.1824 16.1026L29.7226 17.4698ZM32.5004 18.3608L36.7102 17.5192L36.3181 15.558L32.1083 16.3996L32.5004 18.3608ZM36.7102 17.5192C36.8237 17.4965 36.9403 17.4937 37.0548 17.5108L37.3518 15.533C37.0084 15.4815 36.6586 15.4899 36.3181 15.558L36.7102 17.5192ZM37.0548 17.5108L41.1645 18.128L41.4615 16.1502L37.3518 15.533L37.0548 17.5108ZM41.1645 18.128C41.6629 18.2029 42.1722 18.1509 42.6452 17.977L41.9551 16.0999C41.7974 16.1578 41.6276 16.1751 41.4615 16.1502L41.1645 18.128ZM42.6452 17.977L42.7465 17.9398L42.0564 16.0626L41.9551 16.0999L42.6452 17.977ZM13.3568 39.4388C8.31633 36.0645 5.00122 30.3214 5.00122 23.8045H3.00122C3.00122 31.0167 6.67282 37.3711 12.2442 41.1008L13.3568 39.4388ZM5.00122 23.8045C5.00122 16.6911 8.95148 10.4989 14.7827 7.30458L13.8219 5.55052C7.37568 9.08175 3.00122 15.9315 3.00122 23.8045H5.00122ZM16.3852 7.0001L14.9836 5.69556L13.621 7.15954L15.0225 8.46408L16.3852 7.0001ZM16.984 7.77637C16.8283 7.48652 16.626 7.22427 16.3852 7.0001L15.0225 8.46408C15.1028 8.5388 15.1703 8.62622 15.2222 8.72284L16.984 7.77637ZM17.8909 9.46455L16.984 7.77638L15.2222 8.72284L16.129 10.411L17.8909 9.46455ZM19.5762 11.8033L17.823 9.35549L16.197 10.5201L17.9502 12.9679L19.5762 11.8033ZM20.1373 13.5501C20.1373 12.9235 19.9411 12.3127 19.5762 11.8033L17.9502 12.9679C18.0719 13.1377 18.1373 13.3413 18.1373 13.5501H20.1373ZM20.1373 15.5305V13.5501H18.1373V15.5305H20.1373ZM20.1958 15.8676C20.1571 15.7594 20.1373 15.6454 20.1373 15.5305H18.1373C18.1373 15.8752 18.1967 16.2174 18.3129 16.5419L20.1958 15.8676ZM20.5974 16.989L20.1958 15.8676L18.3129 16.5419L18.7145 17.6634L20.5974 16.989ZM19.3548 20.5496C20.5565 19.804 21.0742 18.3204 20.5974 16.989L18.7145 17.6634C18.8735 18.1072 18.7009 18.6017 18.3003 18.8502L19.3548 20.5496ZM17.7028 21.5748L19.3548 20.5496L18.3003 18.8502L16.6483 19.8754L17.7028 21.5748ZM17.5487 21.6925C17.5961 21.6484 17.6477 21.6089 17.7028 21.5748L16.6483 19.8754C16.4831 19.9778 16.3283 20.0961 16.1861 20.2285L17.5487 21.6925ZM15.564 23.5398L17.5487 21.6925L16.1861 20.2285L14.2014 22.0758L15.564 23.5398ZM13.2543 25.6896L15.564 23.5398L14.2014 22.0758L11.8917 24.2256L13.2543 25.6896ZM12.9698 26.681C12.8738 26.3233 12.9832 25.9419 13.2543 25.6896L11.8917 24.2256C11.0785 24.9825 10.7501 26.1269 11.0383 27.1998L12.9698 26.681ZM13.5723 28.9242L12.9698 26.681L11.0383 27.1998L11.6408 29.443L13.5723 28.9242ZM13.8568 29.3968C13.7196 29.269 13.621 29.1053 13.5723 28.9242L11.6408 29.443C11.7867 29.9862 12.0824 30.4775 12.4942 30.8607L13.8568 29.3968ZM15.2078 30.6542L13.8568 29.3968L12.4942 30.8607L13.8452 32.1182L15.2078 30.6542ZM15.9882 31.8388C15.8265 31.3872 15.5589 30.981 15.2078 30.6543L13.8452 32.1182C13.9622 32.2272 14.0514 32.3626 14.1053 32.5131L15.9882 31.8388ZM16.8878 34.3506L15.9882 31.8388L14.1053 32.5131L15.0049 35.0249L16.8878 34.3506ZM17.4065 35.799L16.8878 34.3506L15.0049 35.0249L15.5236 36.4734L17.4065 35.799ZM16.1639 39.3596C17.3656 38.614 17.8833 37.1304 17.4065 35.799L15.5236 36.4734C15.6825 36.9172 15.51 37.4117 15.1094 37.6602L16.1639 39.3596ZM13.3278 41.1195L16.1639 39.3596L15.1094 37.6602L12.2733 39.4201L13.3278 41.1195ZM24.0059 26.7645L25.6144 25.3023L24.269 23.8224L22.6606 25.2846L24.0059 26.7645ZM23.8722 28.0958C23.5696 27.6832 23.6273 27.1087 24.0059 26.7645L22.6606 25.2846C21.5247 26.3172 21.3516 28.0406 22.2594 29.2785L23.8722 28.0958ZM24.8355 29.4094L23.8722 28.0958L22.2594 29.2785L23.2227 30.5921L24.8355 29.4094ZM25.3799 31.6492C25.5039 30.8599 25.308 30.0537 24.8355 29.4094L23.2227 30.5921C23.3802 30.8069 23.4455 31.0756 23.4042 31.3387L25.3799 31.6492ZM24.9367 34.4699L25.3799 31.6492L23.4042 31.3387L22.9609 34.1594L24.9367 34.4699ZM24.9577 34.6848C24.9326 34.6161 24.9253 34.5422 24.9367 34.4699L22.9609 34.1594C22.8968 34.5676 22.9377 34.9854 23.08 35.3733L24.9577 34.6848ZM25.5179 34.9376C25.2933 35.0251 25.0407 34.9111 24.9577 34.6848L23.08 35.3733C23.5486 36.6514 24.9755 37.2953 26.244 36.8011L25.5179 34.9376ZM27.9755 33.9801L25.5179 34.9376L26.244 36.8011L28.7015 35.8437L27.9755 33.9801ZM28.447 33.5992C28.333 33.7719 28.1683 33.905 27.9754 33.9801L28.7015 35.8437C29.28 35.6183 29.7743 35.219 30.1162 34.7009L28.447 33.5992ZM29.8913 31.4109L28.447 33.5992L30.1162 34.7009L31.5605 32.5126L29.8913 31.4109ZM30.2123 31.0054C30.0939 31.1311 29.9864 31.2667 29.8913 31.4109L31.5605 32.5126C31.5922 32.4645 31.628 32.4193 31.6675 32.3774L30.2123 31.0054ZM32.2664 28.8269L30.2124 31.0054L31.6675 32.3774L33.7216 30.1989L32.2664 28.8269ZM32.1021 27.3146C32.6102 27.661 32.6882 28.3795 32.2664 28.8269L33.7216 30.1989C34.987 28.8567 34.7529 26.7013 33.2288 25.6622L32.1021 27.3146ZM31.5179 26.9163L32.1021 27.3146L33.2288 25.6622L32.6446 25.2638L31.5179 26.9163ZM29.9502 25.9678L31.5629 26.9452L32.5995 25.2348L30.9868 24.2574L29.9502 25.9678ZM29.6535 25.8479C29.7582 25.8717 29.8583 25.9122 29.9502 25.9678L30.9868 24.2574C30.7113 24.0905 30.4108 23.969 30.0967 23.8976L29.6535 25.8479ZM27.4496 25.347L29.6535 25.8479L30.0967 23.8976L27.8928 23.3967L27.4496 25.347ZM26.577 25.0852L27.3812 25.3289L27.9612 23.4148L27.1571 23.1711L26.577 25.0852ZM25.6144 25.3023C25.8747 25.0656 26.2403 24.9831 26.577 25.0852L27.1571 23.1711C26.1468 22.865 25.0501 23.1123 24.269 23.8224L25.6144 25.3023Z" fill="white"/>
<circle cx="23.8012" cy="23.8045" r="19.8" stroke="white" stroke-width="2"/>
</g>
</svg>
