<svg width="277" height="46" viewBox="0 0 277 46" fill="none" xmlns="http://www.w3.org/2000/svg">
<g clip-path="url(#clip0_1_7179)">
<path d="M143.258 15.6459V31.5665L130.383 22.6617L143.258 15.6459Z" fill="#244A9A"/>
<path d="M117.641 15.6459V31.5665L130.377 22.6617L117.641 15.6459Z" fill="#95A948"/>
<path d="M130.379 -0.268188L113.766 8.7715H130.379V-0.268188Z" fill="#FFDE14"/>
<path d="M130.383 -0.268188L146.996 8.7715H130.383V-0.268188Z" fill="#F0C3C0"/>
<path d="M130.377 22.6693L113.902 34.0026H130.377V22.6693Z" fill="#D3D80E"/>
<path d="M130.383 22.6693L146.996 34.0026H130.383V22.6693Z" fill="#2DAFE6"/>
<path d="M113.902 34.0052H130.377V45.0687L113.902 34.0052Z" fill="#FBEF82"/>
<path d="M146.996 34.0052H130.383V45.0687L146.996 34.0052Z" fill="#AFDFF9"/>
<path d="M113.902 8.77087H130.516V17.8106L113.902 8.77087Z" fill="#F18825"/>
<path d="M146.996 8.77087H130.383V17.8106L146.996 8.77087Z" fill="#E94287"/>
<path opacity="0.8" d="M146.99 34.001V8.77087L130.377 17.8106L113.902 8.77087V34.001L117.64 36.5645V15.6518L130.377 22.6677L143.252 15.6518V36.5645L146.99 34.001Z" fill="white"/>
<path opacity="0.8" d="M195.863 24.8321C197.248 24.2924 198.494 23.4829 199.463 22.2686C200.57 20.9194 201.124 19.1655 201.124 17.2766C201.124 16.0623 200.847 14.848 200.432 13.9036C200.017 12.8242 199.324 12.0147 198.494 11.2051C197.663 10.5305 196.555 9.85595 195.31 9.45118C194.064 9.04642 192.679 8.9115 191.156 8.9115H180.496V36.7052H184.234V12.5544H191.156C193.233 12.5544 194.756 12.9591 195.725 13.7686C196.694 14.5782 197.248 15.7924 197.248 17.2766C197.248 18.8956 196.694 19.975 195.725 20.7845C194.617 21.594 193.094 21.9988 191.156 21.9988H186.588V25.5067H192.125L197.386 36.5702H201.539L195.863 24.8321Z" fill="white"/>
<path opacity="0.8" d="M204.309 9.04431V12.5522H212.892V36.703H216.63V12.5522H225.214V9.04431H204.309Z" fill="white"/>
<path opacity="0.8" d="M164.992 9.04431H161.808L150.871 36.703H154.886L158.347 28.0681H168.73L172.191 36.703H176.068L164.992 9.04431ZM159.593 24.83L163.469 14.9808L167.346 24.83H159.593Z" fill="white"/>
<path opacity="0.8" d="M108.224 25.9043C107.809 24.9599 107.255 24.1503 106.563 23.4757C105.871 22.8011 105.04 22.2615 104.071 21.7218C103.102 21.317 101.994 20.9122 100.887 20.7773L95.7644 20.1027C95.2107 19.9678 94.6569 19.9678 94.1031 19.698C93.6878 19.563 93.2724 19.2932 92.8571 19.0234C92.5802 18.7535 92.3033 18.3488 92.0265 17.944C91.888 17.5392 91.7496 16.9995 91.7496 16.3249C91.7496 15.6503 91.888 14.9757 92.1649 14.571C92.4418 14.0313 92.8571 13.6265 93.2724 13.2218C93.8262 12.817 94.5184 12.4122 95.2106 12.1424C96.0413 11.8726 96.872 11.8726 97.7026 11.8726C98.8102 11.8726 99.9177 12.0075 100.748 12.4122C101.579 12.6821 102.271 13.2218 102.825 13.7615C103.24 14.1662 103.517 14.571 103.656 15.1107C103.794 15.5154 104.071 16.0551 104.071 16.7297L104.209 17.4043H107.947L107.809 16.4599C107.671 15.3805 107.532 14.4361 107.117 13.6265C106.701 12.817 106.148 12.1424 105.594 11.4678C104.763 10.5234 103.517 9.71383 102.133 9.17415C100.748 8.63446 99.2255 8.36462 97.7026 8.36462C96.3182 8.36462 95.0722 8.63447 93.8262 9.03923C92.5802 9.44399 91.4727 10.1186 90.5036 10.9281C89.8114 11.6027 89.1192 12.4122 88.5654 13.2218C88.0116 14.1662 87.7347 15.2456 87.7347 16.4599C87.7347 17.5392 87.8732 18.6186 88.2885 19.4281C88.7038 20.2376 89.2576 21.0472 89.9498 21.7218C90.642 22.3964 91.4727 22.8011 92.3033 23.2059C93.134 23.6107 94.1031 23.7456 95.2106 23.8805L100.195 24.5551C100.887 24.69 101.579 24.8249 102.133 25.0948C102.687 25.3646 103.102 25.6345 103.517 26.0392C103.933 26.444 104.209 26.8488 104.348 27.2535C104.486 27.6583 104.625 28.198 104.625 28.7376C104.625 29.4122 104.486 30.0869 104.209 30.4916C103.933 31.0313 103.656 31.4361 103.24 31.8408C102.548 32.3805 101.856 32.7853 100.887 33.0551C99.9177 33.3249 98.8102 33.4599 97.7026 33.4599C96.7335 33.4599 95.626 33.3249 94.7953 32.9202C93.8262 32.6503 93.134 32.1107 92.4418 31.571C92.0265 31.1662 91.6111 30.6265 91.3342 29.9519C91.0574 29.4122 90.7805 28.7376 90.7805 28.063L90.642 27.2535H86.7656L86.9041 28.198C87.0425 29.2773 87.3194 30.3567 87.7347 31.3011C88.1501 32.2456 88.8423 33.0551 89.5345 33.8646C90.5036 34.944 91.7496 35.6186 93.134 36.1583C94.5184 36.698 96.0413 36.9678 97.7026 36.9678C99.3639 36.9678 100.887 36.698 102.271 36.2932C103.656 35.8884 104.902 35.0789 105.871 34.1345C106.563 33.4599 107.117 32.6503 107.532 31.8408C107.947 30.8964 108.224 29.817 108.224 28.6027C108.778 27.7932 108.64 26.8488 108.224 25.9043Z" fill="white"/>
<path opacity="0.8" d="M262.036 36.8401H264.528L275.465 8.9115H272.557L263.282 32.9274L253.729 8.9115H232.824V11.475H241.823V36.8401H244.453V11.475H251.929L262.036 36.8401Z" fill="white"/>
<path opacity="0.8" d="M143.258 15.6518V36.5645L146.996 34.001V8.77087L130.383 17.8106V22.6677L143.258 15.6518Z" fill="white"/>
<path opacity="0.8" d="M3.14822 21.9998C1.34846 21.4601 0.933136 19.976 0.933136 18.7617V18.3569C0.933136 16.0633 2.17912 14.849 4.80954 14.849H6.05553C8.13217 14.849 9.37816 15.6585 9.37816 17.8172C9.37816 18.3569 9.10127 18.7617 8.40906 18.7617C7.71684 18.7617 7.43996 18.3569 7.43996 17.8172C7.43996 17.0077 6.88619 16.603 6.05553 16.603H4.80954C3.42511 16.603 2.7329 17.1426 2.7329 18.3569V18.7617C2.7329 19.5712 3.28667 20.1109 3.84044 20.2458L7.43996 21.595C8.96283 22.1347 9.79349 23.2141 9.79349 24.968V25.6427C9.79349 27.9363 8.5475 29.2855 5.91708 29.2855H3.97888C1.90224 29.2855 0.65625 28.476 0.65625 26.3173C0.65625 25.7776 0.933136 25.3728 1.62535 25.3728C2.31757 25.3728 2.59445 25.7776 2.59445 26.3173C2.59445 27.1268 3.14822 27.5315 3.97888 27.5315H6.05553C7.43996 27.5315 8.13217 26.8569 8.13217 25.6427V24.968C8.13217 24.1585 7.71684 23.6188 7.16307 23.349L3.14822 21.9998Z" fill="white"/>
<path opacity="0.8" d="M16.5786 18.7552C18.6553 18.7552 19.9012 19.9695 19.9012 21.8584V28.1997C19.9012 28.7394 19.6244 29.1441 18.9321 29.1441H15.1942C13.256 29.1441 12.1484 28.3346 12.1484 26.4457V24.9616C12.1484 23.0727 13.3944 22.2632 15.1942 22.2632H18.1015V21.8584C18.1015 20.914 17.5477 20.5092 16.7171 20.5092H14.0866C13.5329 20.5092 13.1175 20.2394 13.1175 19.6997C13.1175 19.16 13.5329 18.8902 14.0866 18.8902H16.5786V18.7552ZM17.963 27.3902V23.8822H15.0557C14.2251 23.8822 13.8098 24.287 13.8098 24.9616V26.4457C13.8098 26.9854 14.2251 27.5251 15.0557 27.5251H17.963V27.3902Z" fill="white"/>
<path opacity="0.8" d="M32.6359 22.3981C32.6359 21.1838 32.0821 20.5092 30.6977 20.5092H29.5901V28.4695C29.5901 29.0092 29.3132 29.414 28.621 29.414C27.9288 29.414 27.6519 29.0092 27.6519 28.4695V20.5092H24.6062V28.4695C24.6062 29.0092 24.3293 29.414 23.6371 29.414C22.9449 29.414 22.668 29.0092 22.668 28.4695V19.6997C22.668 19.16 22.9449 18.7552 23.6371 18.7552H30.6977C33.1896 18.7552 34.4356 20.1045 34.4356 22.3981V28.4695C34.4356 29.0092 34.1587 29.414 33.4665 29.414C32.7743 29.414 32.4974 29.0092 32.4974 28.4695V22.3981H32.6359Z" fill="white"/>
<path opacity="0.8" d="M40.12 29.2755C38.1818 29.2755 37.0742 28.6009 37.0742 26.8469C37.0742 26.3072 37.3511 25.9024 38.0433 25.9024C38.7355 25.9024 38.874 26.3072 39.0124 26.8469C39.0124 27.2516 39.4277 27.6564 40.2584 27.6564H41.9197C42.8888 27.6564 43.1657 27.1167 43.1657 26.577V25.9024C43.1657 25.3628 42.8888 25.2278 42.4735 24.958L39.2893 24.1485C38.0433 23.7437 37.4895 22.9342 37.4895 21.7199V21.1802C37.4895 19.2913 38.5971 18.4818 40.5353 18.4818H41.6428C43.581 18.4818 44.6886 19.1564 44.6886 20.9104C44.6886 21.4501 44.5501 21.8548 43.7195 21.8548C43.0273 21.8548 42.8888 21.4501 42.7504 20.9104C42.7504 20.5056 42.3351 20.1009 41.6428 20.1009H40.5353C39.5662 20.1009 39.2893 20.6405 39.2893 21.1802V21.7199C39.2893 22.1247 39.5662 22.3945 39.9815 22.6643L43.1657 23.4739C44.4117 23.8786 45.1039 24.5532 45.1039 25.9024V26.577C45.1039 28.4659 43.9964 29.2755 42.0582 29.2755H40.12Z" fill="white"/>
<path opacity="0.8" d="M49.1144 25.4977C49.1144 26.712 49.6682 27.3866 51.0526 27.3866H53.5446V19.4263C53.5446 18.8866 53.8215 18.4818 54.5137 18.4818C55.2059 18.4818 55.4828 18.8866 55.4828 19.4263V28.1961C55.4828 28.7358 55.2059 29.1405 54.5137 29.1405H51.1911C48.5607 29.1405 47.4531 27.7913 47.4531 25.4977V19.4263C47.4531 18.8866 47.73 18.4818 48.4222 18.4818C49.1144 18.4818 49.3913 18.8866 49.3913 19.4263V25.4977H49.1144Z" fill="white"/>
<path opacity="0.8" d="M64.6184 22.3981C64.6184 21.1838 64.0646 20.5092 62.6802 20.5092H60.1882V28.4695C60.1882 29.0092 59.9113 29.414 59.2191 29.414C58.5269 29.414 58.25 29.0092 58.25 28.4695V19.6997C58.25 19.16 58.5269 18.7552 59.2191 18.7552H62.5417C65.0337 18.7552 66.2797 20.1045 66.2797 22.3981V28.4695C66.2797 29.0092 66.0028 29.414 65.3106 29.414C64.6184 29.414 64.3415 29.0092 64.3415 28.4695V22.3981H64.6184Z" fill="white"/>
<path opacity="0.8" d="M77.2194 30.2214C77.2194 32.3801 75.9734 34.1341 73.343 34.1341H71.1279C70.7126 34.1341 70.1588 33.8643 70.1588 33.3246C70.1588 32.7849 70.5741 32.515 71.1279 32.515H73.4814C74.8658 32.515 75.5581 31.5706 75.5581 30.3563V29.2769H73.0661C70.5741 29.2769 69.3281 27.9277 69.3281 25.6341V22.8008C69.3281 20.5071 70.5741 18.8881 73.2045 18.8881H76.5272C77.2194 18.8881 77.4963 19.2928 77.4963 19.8325V30.2214H77.2194ZM73.0661 20.3722C71.6817 20.3722 71.1279 21.3166 71.1279 22.5309V25.3642C71.1279 26.5785 71.6817 27.2531 73.0661 27.2531H75.5581V20.3722H73.0661Z" fill="white"/>
</g>
<defs>
<clipPath id="clip0_1_7179">
<rect width="276" height="45.3333" fill="white" transform="translate(0.5 0.333374)"/>
</clipPath>
</defs>
</svg>
