<svg width="223" height="413" viewBox="0 0 223 413" fill="none" xmlns="http://www.w3.org/2000/svg">
<path d="M1.43651 413C25.1373 301.217 24.0807 194.891 19.014 125.355C13.515 50.0272 2.27696 0.502666 2.1569 0L1.2444 0.311174C1.36447 0.81384 12.5785 50.2666 18.0535 125.499C23.1202 194.915 24.1768 301.097 0.5 412.713L1.43651 413Z" fill="#131618"/>
<path d="M204.851 155.539L204.779 154.366L20.9111 171.433L20.9832 172.606L204.851 155.539Z" fill="#131618"/>
<path d="M222.116 278.333L222.5 277.256L21.1511 171.481L20.7668 172.558L222.116 278.333Z" fill="#131618"/>
<path d="M137.086 44.1628L136.437 43.3011L20.6228 171.577L21.2712 172.438L137.086 44.1628Z" fill="#131618"/>
<path d="M125.368 326.47L21.3194 171.648L20.575 172.391L124.647 327.212L125.368 326.47Z" fill="#131618"/>
<path d="M216.233 274.599L215.512 273.762C183.431 237.282 198.703 156.449 198.847 155.635L198.919 155.276L198.631 155.132C148.036 129.425 130.843 51.5352 130.674 50.7453L130.578 50.3145L130.242 50.4342C97.3444 60.9183 64.5667 48.1841 42.8349 35.6414C19.2782 22.0455 3.30959 5.76869 3.16551 5.60114L2.70926 6.27136C2.87735 6.43891 18.894 22.7875 42.5228 36.4313C64.2785 48.998 97.1043 61.7561 130.074 51.3916C131.515 57.639 149.309 130.765 198.103 155.779C197.022 161.715 183.959 237.689 214.336 273.594C206.315 273.331 149.885 273.331 121.79 321.922C119.797 322.329 98.8572 326.661 74.4841 338.438C50.9273 349.808 19.2782 370.585 2.229 405.125L2.85334 405.58C19.8065 371.255 51.3115 350.574 74.7482 339.252C100.178 326.996 121.862 322.807 122.078 322.76L122.222 322.736L122.318 322.592C152.19 270.698 214.648 274.48 215.296 274.528L216.233 274.599Z" fill="#131618"/>
<path d="M197.431 264.714L196.71 263.9C167.631 230.484 181.87 157.933 182.038 157.215L182.11 156.856L181.822 156.712C135.885 133.063 120.613 62.8093 120.469 62.0912L119.773 62.3066C119.917 63.0247 135.213 133.422 181.27 157.358C180.213 162.96 168.111 230.915 195.558 263.756C188.066 263.612 137.518 264.283 112.569 308.23C108.655 308.996 38.0084 323.813 7.2478 378.125L7.84813 378.627C39.1611 323.334 112.136 309.188 112.857 309.068L113.049 309.02L113.121 308.805C139.703 261.817 195.894 264.618 196.47 264.666L197.431 264.714Z" fill="#131618"/>
<path d="M165.157 158.866L165.301 158.436L164.965 158.268C123.759 136.701 110.383 74.0116 110.239 73.3893L110.143 72.9823L109.807 73.0781C62.9817 86.5783 17.4531 45.8384 8.80845 37.5324L8.37622 38.2266C17.0449 46.5565 62.6215 87.3442 109.663 74.0116C110.912 79.5649 124.935 138.257 164.701 159.082L164.845 158.699L165.157 158.866Z" fill="#131618"/>
<path d="M177.644 254.78L177.668 253.894C177.164 253.87 126.928 251.955 103.348 294.538C99.8178 295.233 39.6893 307.608 11.0898 353.709L11.6662 354.236C40.8179 307.273 102.988 295.496 103.612 295.376L103.78 295.352L103.876 295.185C127.169 252.865 177.14 254.756 177.644 254.78Z" fill="#131618"/>
<path d="M159.082 244.152C135.957 216.96 148.252 160.901 148.372 160.35L148.444 159.991L148.156 159.848C111.632 140.316 100.154 85.2378 100.058 84.6873L99.9858 84.2803L99.6496 84.3761C59.4519 95.1954 21.7515 63.0965 11.1618 52.9953L11.0898 52.9475L10.7776 53.7374C21.3673 63.8146 59.1157 95.9374 99.4815 85.3335C100.61 90.4559 112.689 141.608 147.652 160.494C146.619 165.425 136.221 218.42 158.65 244.798L159.082 244.152Z" fill="#131618"/>
<path d="M94.3908 281.637L94.2947 280.775C93.7665 280.871 40.5777 290.661 14.0674 330.946L14.6197 331.496C40.9619 291.475 93.8625 281.708 94.3908 281.637Z" fill="#131618"/>
<path d="M140.928 235.032L140.304 234.266C121.117 211.311 130.41 166.981 131.515 162.002L131.659 161.595L131.347 161.356C99.4817 143.93 89.9245 96.4879 89.8284 96.0092L89.1321 96.2007C89.2281 96.6794 98.8093 144.265 130.747 162.002C129.426 168.034 120.781 211 139.175 234.147C133.46 234.362 100.442 236.851 84.9058 267.083C81.8801 267.658 39.113 276.131 16.3967 309.235L16.949 309.81C40.1936 275.916 84.7137 268.017 85.1699 267.945L85.338 267.921L85.4341 267.753C102.147 235.008 139.655 235.032 140.016 235.056L140.928 235.032Z" fill="#131618"/>
<path d="M122.078 225.123L121.478 224.381C104.548 203.628 114.274 165.114 114.706 163.486L114.802 163.127L114.538 162.936C87.3791 147.616 79.7189 107.738 79.6469 107.331L79.5749 106.924L79.2387 106.996C49.2945 113.243 22.424 90.2644 14.9079 83.0835L14.4517 83.7777C21.9917 90.9825 48.9103 113.985 79.0226 107.93C79.911 112.19 88.1715 148.789 113.961 163.582C112.857 168.082 104.668 203.963 120.421 224.309C115.378 224.668 88.1475 227.732 75.6848 253.392C72.8752 253.894 37.6242 260.716 18.2457 288.363L18.798 288.937C38.7288 260.525 75.5887 254.301 75.9729 254.229L76.141 254.205L76.2371 254.014C89.6843 226.08 120.949 225.147 121.261 225.147L122.078 225.123Z" fill="#131618"/>
<path d="M97.8486 165.09L97.9927 164.683L97.6805 164.491C75.2044 151.207 69.4653 118.964 69.4173 118.653L69.3452 118.246L69.009 118.294C43.8915 122.411 22.4238 103.645 16.4206 97.8044L15.9644 98.4986C21.9916 104.363 43.5072 123.153 68.7689 119.228C69.5133 123.01 75.9248 152.619 97.3684 165.281L97.5124 164.898L97.8486 165.09Z" fill="#131618"/>
<path d="M102.459 215.261L102.411 214.375C102.147 214.399 76.8614 216.242 66.4398 239.652C63.8704 240.083 35.5591 245.277 19.5664 268.113L20.1187 268.687C36.6156 245.133 66.4157 240.538 66.7279 240.514L66.92 240.49L67.0161 240.298C77.1736 217.128 102.195 215.285 102.459 215.261Z" fill="#131618"/>
<path d="M84.3775 205.303L83.8972 204.657C72.7552 189.912 80.9676 166.885 81.0397 166.67L81.1837 166.287L80.8956 166.095C63.126 154.869 59.2599 130.214 59.2119 129.975L58.5155 130.143C58.5635 130.382 62.4296 155.18 80.2713 166.694C79.2627 169.758 72.8993 190.534 82.9367 204.633C79.4788 205.327 63.6302 209.348 57.2908 225.913C52.8724 226.607 32.5815 230.748 20.5029 248.532L21.0552 249.083C33.0617 231.37 53.4007 227.397 57.4109 226.774L57.651 226.894L57.8191 226.511C64.6868 208.176 83.489 205.399 83.6571 205.375L84.3775 205.303Z" fill="#131618"/>
<path d="M65.4793 195.346L65.0951 194.795C56.9787 183.186 64.1105 168.417 64.1826 168.273L64.3747 167.89L64.0625 167.675C50.9754 158.507 49.0544 141.465 49.0304 141.297L48.9823 140.914H48.6702C32.4854 140.77 21.7756 129.927 18.8941 126.624L18.4138 127.27C21.3434 130.621 32.1012 141.512 48.382 141.8C48.7422 144.385 51.3836 159.584 63.4142 168.226C62.3336 170.643 57.0267 183.928 64.2306 194.867C61.7332 195.753 51.4077 200.109 48.0218 212.269C45.8847 212.532 30.1081 214.902 21.0552 229.527L21.6316 230.053C31.1167 214.734 48.1659 213.13 48.334 213.106L48.5261 213.059L48.5981 212.771C52.2241 199.223 64.7829 195.537 64.903 195.489L65.4793 195.346Z" fill="#131618"/>
<path d="M39.0409 199.367V198.481C38.9208 198.481 27.3946 198.433 21.1992 211.479L21.8236 211.91C27.8028 199.343 38.9208 199.367 39.0409 199.367Z" fill="#131618"/>
<path d="M46.2928 184.909C41.202 176.508 47.0372 170.188 47.2773 169.925L47.6375 169.566L47.2533 169.255C38.8487 162.194 38.8007 152.763 38.8007 152.691V152.308L38.4886 152.236C25.1613 149.579 19.8785 140.699 19.8305 140.603L19.2542 141.106C19.4703 141.488 24.6811 150.249 38.1043 153.05C38.2004 154.893 39.0889 163.199 46.5089 169.662C45.2362 171.265 40.9619 177.585 45.7405 185.46L46.2928 184.909Z" fill="#131618"/>
</svg>
